<svg width="21" height="20" fill="none" xmlns="http://www.w3.org/2000/svg"><g clip-path="url(#clip0_7_1611)"><path d="M19.652 7.254h-4.149l-2.327-5.33a.586.586 0 10-1.074.47l2.122 4.86H6.776l2.122-4.86a.586.586 0 00-1.074-.47l-2.327 5.33h-4.15c-.542 0-.945.492-.826 1.009l2.185 9.517c.087.378.43.646.827.646h13.934c.397 0 .74-.268.827-.646l2.185-9.517c.119-.517-.284-1.009-.827-1.009zM5.607 9.051a.586.586 0 01-.537-.82l.44-1.008h1.28L6.143 8.7a.586.586 0 01-.537.351zm1.963 6.25a.586.586 0 01-1.172 0v-4.297a.586.586 0 011.172 0v4.297zm3.516 0a.586.586 0 01-1.172 0v-4.297a.586.586 0 111.172 0v4.297zm3.516 0a.586.586 0 01-1.172 0v-4.297a.586.586 0 011.172 0v4.297zm1.025-6.299a.583.583 0 01-.771-.302l-.645-1.477h1.278l.44 1.008a.586.586 0 01-.302.771z" fill="#65C855"/></g><defs><clipPath id="clip0_7_1611"><path fill="#fff" transform="translate(.5)" d="M0 0h20v20H0z"/></clipPath></defs></svg>