<svg width="16" height="16" fill="none" xmlns="http://www.w3.org/2000/svg"><g id="icon / system"><path id="Прямоугольник 2" d="M12.93 3H3.07C1.925 3 1 3.828 1 4.85v8.3C1 14.172 1.926 15 3.07 15h9.86c1.144 0 2.07-.828 2.07-1.85v-8.3C15 3.828 14.074 3 12.93 3z" stroke="#5D6C7B" stroke-width="2"/><g id="Контур 15"><mask id="path-2-outside-1_3_553" maskUnits="userSpaceOnUse" x="3" y="0" width="2" height="4" fill="#000"><path fill="#fff" d="M3 0h2v4H3z"/><path d="M4 3V1z"/></mask><path d="M5 3a1 1 0 01-2 0h2zM3 1a1 1 0 012 0H3zm0 2V1h2v2H3z" fill="#5D6C7B" mask="url(#path-2-outside-1_3_553)"/></g><g id="Контур 16"><mask id="path-4-outside-2_3_553" maskUnits="userSpaceOnUse" x="11" y="0" width="2" height="4" fill="#000"><path fill="#fff" d="M11 0h2v4h-2z"/><path d="M12 3V1z"/></mask><path d="M13 3a1 1 0 11-2 0h2zm-2-2a1 1 0 112 0h-2zm0 2V1h2v2h-2z" fill="#5D6C7B" mask="url(#path-4-outside-2_3_553)"/></g><g id="Контур 17"><mask id="path-6-outside-3_3_553" maskUnits="userSpaceOnUse" x="0" y="5" width="16" height="2" fill="#000"><path fill="#fff" d="M0 5h16v2H0z"/><path d="M1 6h14z"/></mask><path d="M1 5a1 1 0 000 2V5zm14 2a1 1 0 100-2v2zM1 7h14V5H1v2z" fill="#5D6C7B" mask="url(#path-6-outside-3_3_553)"/></g><g id="Контур 18"><mask id="path-8-outside-4_3_553" maskUnits="userSpaceOnUse" x="3.623" y="8.107" width="4" height="2" fill="#000"><path fill="#fff" d="M3.623 8.107h4v2h-4z"/><path d="M4.623 9.107h1.348z"/></mask><path d="M4.623 8.107a1 1 0 100 2v-2zm1.348 2a1 1 0 000-2v2zm-1.348 0h1.348v-2H4.623v2z" fill="#5D6C7B" mask="url(#path-8-outside-4_3_553)"/></g><g id="Контур 19"><mask id="path-10-outside-5_3_553" maskUnits="userSpaceOnUse" x="8.84" y="8.107" width="4" height="2" fill="#000"><path fill="#fff" d="M8.84 8.107h4v2h-4z"/><path d="M9.84 9.107h1.348z"/></mask><path d="M9.84 8.107a1 1 0 100 2v-2zm1.348 2a1 1 0 000-2v2zm-1.348 0h1.348v-2H9.84v2z" fill="#5D6C7B" mask="url(#path-10-outside-5_3_553)"/></g><g id="Контур 20"><mask id="path-12-outside-6_3_553" maskUnits="userSpaceOnUse" x="3.623" y="11.06" width="4" height="2" fill="#000"><path fill="#fff" d="M3.623 11.06h4v2h-4z"/><path d="M4.623 12.06h1.348z"/></mask><path d="M4.623 11.06a1 1 0 100 2v-2zm1.348 2a1 1 0 100-2v2zm-1.348 0h1.348v-2H4.623v2z" fill="#5D6C7B" mask="url(#path-12-outside-6_3_553)"/></g><g id="Контур 21"><mask id="path-14-outside-7_3_553" maskUnits="userSpaceOnUse" x="8.84" y="11.06" width="4" height="2" fill="#000"><path fill="#fff" d="M8.84 11.06h4v2h-4z"/><path d="M9.84 12.06h1.348z"/></mask><path d="M9.84 11.06a1 1 0 100 2v-2zm1.348 2a1 1 0 100-2v2zm-1.348 0h1.348v-2H9.84v2z" fill="#5D6C7B" mask="url(#path-14-outside-7_3_553)"/></g></g></svg>