<svg width="20" height="20" fill="none" xmlns="http://www.w3.org/2000/svg"><path d="M17.994 5.515A5.137 5.137 0 0013.263 2.4 5.156 5.156 0 0010 3.56 5.155 5.155 0 006.74 2.4c-.69 0-1.36.134-1.992.399A5.127 5.127 0 001.6 7.516c0 .654.132 1.336.395 2.03.22.579.535 1.18.937 1.786.638.96 1.515 1.962 2.604 2.978a29.133 29.133 0 003.668 2.893l.46.298a.62.62 0 00.671 0l.461-.298c.076-.05 1.861-1.21 3.668-2.893 1.089-1.016 1.966-2.017 2.604-2.978a9.01 9.01 0 00.937-1.787 5.733 5.733 0 00.395-2.029 5.043 5.043 0 00-.406-2.001zM10 15.948s-6.923-4.48-6.923-8.432c0-2.001 1.64-3.623 3.662-3.623 1.421 0 2.654.801 3.261 1.972a3.667 3.667 0 013.261-1.972c2.023 0 3.662 1.622 3.662 3.623 0 3.952-6.923 8.432-6.923 8.432z" fill="#2B8E00"/></svg>