<svg width="20" height="20" fill="none" xmlns="http://www.w3.org/2000/svg"><path d="M17.995 5.515A5.138 5.138 0 0013.264 2.4a5.155 5.155 0 00-3.261 1.16A5.155 5.155 0 006.741 2.4c-.691 0-1.36.133-1.992.399a5.127 5.127 0 00-3.148 4.717c0 .654.132 1.336.394 2.029.22.58.535 1.18.938 1.787.638.96 1.515 1.962 2.604 2.978a29.144 29.144 0 003.667 2.893l.461.298a.62.62 0 00.671 0l.46-.298a29.48 29.48 0 003.668-2.893c1.09-1.016 1.967-2.017 2.604-2.978.403-.607.72-1.208.938-1.787a5.733 5.733 0 00.394-2.029 5.042 5.042 0 00-.406-2.001zm-7.993 10.433S3.08 11.468 3.08 7.516c0-2.001 1.639-3.623 3.661-3.623 1.422 0 2.655.8 3.261 1.971a3.668 3.668 0 013.262-1.971c2.022 0 3.662 1.622 3.662 3.623 0 3.952-6.923 8.432-6.923 8.432z" fill="#2B8E00"/><path d="M4 4c2.1-1.4 4.352-.605 5.553.174.343-.153 1.08-.37 2.447-.674 4.5-1 4.5 1.5 5.5 3 .8 1.2-.333 3.5-1 4.5L10 17l-7-6.5C2.333 9 1.6 5.6 4 4z" fill="#2B8E00"/></svg>