<svg width="15" height="15" fill="none" xmlns="http://www.w3.org/2000/svg"><g id="Icon / Outlined / Home"><path id="Vector" d="M13.865 7.398l-5.66-5.657-.38-.38a.461.461 0 00-.65 0l-6.04 6.037a.936.936 0 00-.275.674.947.947 0 00.951.927h.623v4.771h10.133V9h.636a.933.933 0 00.867-.58.932.932 0 00-.205-1.021zm-5.544 5.318H6.68V9.727h1.64v2.989zm3.192-4.771v4.77H9.258v-3.34a.586.586 0 00-.586-.585H6.33a.586.586 0 00-.586.586v3.34H3.488V7.945H2.082l5.42-5.416.338.338 5.08 5.078h-1.407z" fill="#5D6C7B"/></g></svg>