<svg width="30" height="30" fill="none" xmlns="http://www.w3.org/2000/svg"><g clip-path="url(#clip0_4_16232)" fill="#438559"><path d="M15.005 7.297a7.697 7.697 0 00-7.698 7.698 7.697 7.697 0 007.698 7.697 7.697 7.697 0 007.697-7.697 7.697 7.697 0 00-7.697-7.698zm0 12.694a4.995 4.995 0 01-4.997-4.996 4.995 4.995 0 014.997-4.996A4.995 4.995 0 0120 14.995a4.994 4.994 0 01-4.996 4.996z"/><path d="M21.185.096c-2.76-.13-9.596-.123-12.359 0-2.427.113-4.569.7-6.295 2.426C-.354 5.407.015 9.294.015 14.996c0 5.835-.325 9.632 2.516 12.473 2.896 2.895 6.84 2.517 12.474 2.517 5.78 0 7.775.003 9.819-.788 2.778-1.079 4.876-3.562 5.08-8.024.13-2.76.123-9.596 0-12.358-.247-5.267-3.073-8.46-8.72-8.72zm4.369 25.465c-1.892 1.89-4.515 1.722-10.585 1.722-6.25 0-8.757.093-10.585-1.741-2.107-2.096-1.725-5.463-1.725-10.566 0-6.907-.71-11.88 6.222-12.235 1.593-.057 2.061-.075 6.07-.075l.056.037c6.662 0 11.888-.697 12.202 6.233.07 1.58.087 2.056.087 6.058-.001 6.178.116 8.7-1.742 10.567z"/><path d="M23.008 8.792a1.799 1.799 0 100-3.597 1.799 1.799 0 000 3.597z"/></g><defs><clipPath id="clip0_4_16232"><path fill="#fff" d="M0 0h30v30H0z"/></clipPath></defs></svg>