<svg width="86" height="23" fill="none" xmlns="http://www.w3.org/2000/svg"><path d="M.22 1h5.07v16.65h8.43V22H.22V1zm19.111 10.5c0 1.24.24 2.34.72 3.3.5.94 1.19 1.68 2.07 2.22.9.54 1.95.81 3.15.81 1.18 0 2.21-.27 3.09-.81.9-.54 1.59-1.28 2.07-2.22.5-.96.75-2.06.75-3.3 0-1.24-.24-2.33-.72-3.27a5.423 5.423 0 00-2.04-2.25c-.88-.54-1.93-.81-3.15-.81-1.2 0-2.25.27-3.15.81-.88.54-1.57 1.29-2.07 2.25-.48.94-.72 2.03-.72 3.27zm-5.37 0c0-1.62.28-3.1.84-4.44.58-1.34 1.38-2.5 2.4-3.48a10.45 10.45 0 013.6-2.25c1.38-.54 2.87-.81 4.47-.81 1.62 0 3.11.27 4.47.81 1.38.52 2.58 1.27 3.6 2.25s1.81 2.14 2.37 3.48c.56 1.34.84 2.82.84 4.44 0 1.62-.28 3.11-.84 4.47-.54 1.36-1.32 2.54-2.34 3.54-1 1-2.19 1.78-3.57 2.34-1.38.54-2.89.81-4.53.81-1.66 0-3.18-.27-4.56-.81-1.38-.56-2.58-1.34-3.6-2.34-1-1-1.78-2.18-2.34-3.54-.54-1.36-.81-2.85-.81-4.47zm36.25 2.91v-3.9h10.62c.1 1.68-.07 3.25-.51 4.71s-1.12 2.75-2.04 3.87c-.92 1.12-2.07 2-3.45 2.64-1.38.62-2.96.93-4.74.93-1.68 0-3.22-.26-4.62-.78-1.4-.54-2.61-1.3-3.63-2.28-1.02-1-1.82-2.18-2.4-3.54-.56-1.38-.84-2.9-.84-4.56 0-1.66.29-3.16.87-4.5.58-1.36 1.4-2.52 2.46-3.48s2.3-1.7 3.72-2.22c1.42-.52 2.96-.78 4.62-.78 1.48 0 2.81.21 3.99.63 1.18.42 2.22 1.01 3.12 1.77.92.74 1.71 1.6 2.37 2.58l-4.5 2.34a6.033 6.033 0 00-1.95-2.07c-.8-.56-1.81-.84-3.03-.84-1.16 0-2.23.26-3.21.78-.96.52-1.73 1.27-2.31 2.25-.56.96-.84 2.14-.84 3.54 0 1.38.27 2.58.81 3.6.56 1 1.31 1.78 2.25 2.34.96.54 2.06.81 3.3.81.76 0 1.45-.09 2.07-.27.62-.2 1.15-.47 1.59-.81.44-.36.81-.77 1.11-1.23.32-.48.57-.99.75-1.53h-5.58zm18.193-2.91c0 1.24.24 2.34.72 3.3.5.94 1.19 1.68 2.07 2.22.9.54 1.95.81 3.15.81 1.18 0 2.21-.27 3.09-.81.9-.54 1.59-1.28 2.07-2.22.5-.96.75-2.06.75-3.3 0-1.24-.24-2.33-.72-3.27a5.423 5.423 0 00-2.04-2.25c-.88-.54-1.93-.81-3.15-.81-1.2 0-2.25.27-3.15.81-.88.54-1.57 1.29-2.07 2.25-.48.94-.72 2.03-.72 3.27zm-5.37 0c0-1.62.28-3.1.84-4.44.58-1.34 1.38-2.5 2.4-3.48a10.45 10.45 0 013.6-2.25c1.38-.54 2.87-.81 4.47-.81 1.62 0 3.11.27 4.47.81 1.38.52 2.58 1.27 3.6 2.25s1.81 2.14 2.37 3.48c.56 1.34.84 2.82.84 4.44 0 1.62-.28 3.11-.84 4.47-.54 1.36-1.32 2.54-2.34 3.54-1 1-2.19 1.78-3.57 2.34-1.38.54-2.89.81-4.53.81-1.66 0-3.18-.27-4.56-.81-1.38-.56-2.58-1.34-3.6-2.34-1-1-1.78-2.18-2.34-3.54-.54-1.36-.81-2.85-.81-4.47z" fill="#282739"/></svg>