<svg width="30" height="30" fill="none" xmlns="http://www.w3.org/2000/svg"><g clip-path="url(#clip0_1_267)" fill="#438559"><path d="M18.025 0C11.396 0 6 5.396 6 12.025c0 .755.07 1.516.214 2.258a11.842 11.842 0 00.887 2.774c1.295 3.05 4.144 7.735 10.396 12.754a.854.854 0 001.069 0c6.245-5.018 9.1-9.704 10.396-12.754a11.711 11.711 0 00.887-2.774c.138-.742.214-1.503.214-2.258C30.05 5.396 24.654 0 18.025 0zm10.139 13.987c0 .013-.007.026-.007.038-.006.032-.025.126-.056.27v.013a9.981 9.981 0 01-.698 2.05c-.007.007-.007.02-.013.026-1.176 2.786-3.755 7.037-9.365 11.673-5.61-4.636-8.189-8.887-9.365-11.673-.006-.007-.006-.02-.012-.026a10.651 10.651 0 01-.698-2.05v-.012c-.038-.145-.05-.24-.057-.27 0-.013-.006-.026-.006-.045a10.271 10.271 0 01-.189-1.962c0-5.692 4.635-10.327 10.327-10.327s10.327 4.635 10.327 10.327c0 .666-.063 1.327-.189 1.968z"/><path d="M18.025 4.522c-4.207 0-7.635 3.428-7.635 7.635 0 4.208 3.428 7.636 7.635 7.636 4.208 0 7.635-3.428 7.635-7.636 0-4.207-3.427-7.635-7.635-7.635zm0 13.572a5.944 5.944 0 01-5.937-5.937 5.948 5.948 0 015.937-5.937 5.948 5.948 0 015.937 5.937c0 3.27-2.66 5.937-5.937 5.937z"/></g><defs><clipPath id="clip0_1_267"><path fill="#fff" d="M0 0h30v30H0z"/></clipPath></defs></svg>