<svg width="14" height="17" fill="none" xmlns="http://www.w3.org/2000/svg"><path id="Combined Shape" fill-rule="evenodd" clip-rule="evenodd" d="M6.753 0c2.387 0 4.67 1.127 5.812 3.1 1.141 1.878 1.245 4.132 0 6.01v.094L8.102 16.25c-.311.47-.83.751-1.35.751-.518 0-1.037-.282-1.348-.751l-4.36-6.857C-.822 6.481.112 2.63 3.225.94 4.262.376 5.507 0 6.753 0zM4.158 6.2c0-1.316 1.142-2.349 2.595-2.349 1.453 0 2.594 1.033 2.594 2.348S8.206 8.547 6.753 8.547C5.3 8.547 4.158 7.514 4.158 6.2z" fill="#438559"/></svg>