<svg width="18" height="17" fill="none" xmlns="http://www.w3.org/2000/svg"><path id="Phone" d="M17.126 13.446l-2.701-2.631c-.538-.522-1.429-.507-1.986.036l-1.36 1.325a37.899 37.899 0 01-.269-.145c-.86-.464-2.035-1.1-3.273-2.306-1.241-1.21-1.894-2.357-2.372-3.195l-.146-.255.913-.889.449-.438c.558-.543.573-1.41.036-1.934L3.717.382C3.18-.141 2.287-.125 1.73.418l-.761.746.02.02a4.26 4.26 0 00-.627 1.078 4.375 4.375 0 00-.279 1.093c-.357 2.88.995 5.513 4.661 9.086 5.069 4.937 9.153 4.564 9.33 4.546a4.664 4.664 0 001.125-.275 4.42 4.42 0 001.102-.609l.017.014.77-.735c.557-.543.573-1.412.037-1.936z" fill="#438559"/></svg>