<svg width="16" height="16" fill="none" xmlns="http://www.w3.org/2000/svg"><g clip-path="url(#clip0_7_1597)"><path d="M15.952 14.85l-5.194-5.194A5.946 5.946 0 0012 6a5.964 5.964 0 00-1.758-4.242A5.956 5.956 0 006 0C4.398 0 2.89.626 1.758 1.758A5.952 5.952 0 000 6c0 1.602.626 3.11 1.758 4.242A5.952 5.952 0 006 12a5.95 5.95 0 003.654-1.24l5.194 5.192a.162.162 0 00.179.036.162.162 0 00.053-.036l.872-.87a.162.162 0 00.036-.179.162.162 0 00-.036-.053zM9.168 9.168A4.456 4.456 0 016 10.48a4.456 4.456 0 01-3.168-1.312A4.456 4.456 0 011.52 6c0-1.196.466-2.322 1.312-3.168A4.456 4.456 0 016 1.52c1.196 0 2.322.464 3.168 1.312A4.456 4.456 0 0110.48 6a4.452 4.452 0 01-1.312 3.168z" fill="#C4C4C4"/></g><defs><clipPath id="clip0_7_1597"><path fill="#fff" d="M0 0h16v16H0z"/></clipPath></defs></svg>