<svg width="20" height="20" fill="none" xmlns="http://www.w3.org/2000/svg"><g id="share 1" clip-path="url(#clip0_5_3706)"><path id="Vector" d="M15.423 13.453c-.958 0-1.821.414-2.42 1.072l-5.39-3.338a3.255 3.255 0 000-2.374l5.39-3.338a3.266 3.266 0 002.42 1.072 3.277 3.277 0 003.274-3.274A3.277 3.277 0 0015.423 0a3.277 3.277 0 00-3.05 4.46L6.984 7.8a3.266 3.266 0 00-2.42-1.073A3.277 3.277 0 001.29 10a3.277 3.277 0 003.273 3.274c.958 0 1.822-.414 2.421-1.073l5.39 3.338a3.277 3.277 0 003.05 4.46 3.277 3.277 0 003.273-3.273 3.277 3.277 0 00-3.274-3.273zm-2.08-10.18c0-1.146.933-2.08 2.08-2.08s2.08.934 2.08 2.08c0 1.147-.933 2.08-2.08 2.08a2.082 2.082 0 01-2.08-2.08zm-8.78 8.807A2.082 2.082 0 012.483 10c0-1.147.933-2.08 2.08-2.08s2.08.933 2.08 2.08-.933 2.08-2.08 2.08zm8.78 4.646c0-1.146.933-2.08 2.08-2.08s2.08.933 2.08 2.08-.933 2.08-2.08 2.08a2.082 2.082 0 01-2.08-2.08z" fill="#282739"/></g><defs><clipPath id="clip0_5_3706"><path fill="#fff" d="M0 0h20v20H0z"/></clipPath></defs></svg>