<svg width="24" height="24" fill="none" xmlns="http://www.w3.org/2000/svg"><g clip-path="url(#clip0_5_3827)"><mask id="mask0_5_3827" style="mask-type:luminance" maskUnits="userSpaceOnUse" x="0" y="0" width="24" height="24"><path d="M24 0H0v24h24V0z" fill="#fff"/></mask><g mask="url(#mask0_5_3827)"><path fill-rule="evenodd" clip-rule="evenodd" d="M0 6a3 3 0 013-3h11a3 3 0 013 3v.918a2.99 2.99 0 011.229-.263h.927a3 3 0 012.121.88l1.817 1.817a3 3 0 01.88 2.12v3.84a3 3 0 01-3 3 2.484 2.484 0 00-.767-2h.766a1 1 0 001-1v-3.84a1 1 0 00-.293-.706l-1.817-1.818a1 1 0 00-.707-.293h-.927a1 1 0 00-1 1v5.657a1 1 0 00.173.564 2.491 2.491 0 00-1.4 2.359A2.99 2.99 0 0114 19H7.867a2.486 2.486 0 00-.103-2H14a1 1 0 001-1V6a1 1 0 00-1-1H3a1 1 0 00-1 1v2H0V6zm0 6v4a3 3 0 003 3h.207a2.485 2.485 0 01.103-2H3a1 1 0 01-1-1v-4H0z" fill="#5ABD32"/><path d="M5.537 20.608a2.49 2.49 0 100-4.982 2.49 2.49 0 000 4.982zm12.953 0a2.49 2.49 0 100-4.982 2.49 2.49 0 000 4.982zM10 8H1m5 4H1" stroke="#5ABD32" stroke-width="2" stroke-linecap="round" stroke-linejoin="round"/></g></g><defs><clipPath id="clip0_5_3827"><path fill="#fff" d="M0 0h24v24H0z"/></clipPath></defs></svg>