<svg width="21" height="20" viewBox="0 0 21 20" fill="none" xmlns="http://www.w3.org/2000/svg">
<g clip-path="url(#clip0_7_1611)">
<path d="M19.6523 7.25431H15.5031L13.1756 1.92489C13.0462 1.62837 12.7008 1.49286 12.4042 1.62243C12.1076 1.75192 11.9722 2.09735 12.1017 2.39392L14.2244 7.25435H6.77564L8.8983 2.39392C9.02779 2.09735 8.8924 1.75196 8.59584 1.62243C8.29932 1.49286 7.95385 1.62829 7.82439 1.92489L5.49689 7.25431H1.34772C0.804942 7.25431 0.402129 7.74567 0.520879 8.2629L2.70584 17.7797C2.7926 18.1576 3.13611 18.4262 3.53268 18.4262H17.4674C17.8639 18.4262 18.2074 18.1576 18.2942 17.7797L20.4792 8.2629C20.5979 7.74571 20.1951 7.25431 19.6523 7.25431V7.25431ZM5.60713 9.05134C5.52885 9.05134 5.44928 9.03556 5.37291 9.0022C5.07635 8.87271 4.94092 8.52732 5.07045 8.23071L5.51061 7.22282H6.78936L6.14436 8.6997C6.04822 8.91997 5.83299 9.05134 5.60713 9.05134ZM7.57033 15.3012C7.57033 15.6248 7.30799 15.8871 6.98439 15.8871C6.6608 15.8871 6.39846 15.6248 6.39846 15.3012V11.0043C6.39846 10.6807 6.6608 10.4184 6.98439 10.4184C7.30799 10.4184 7.57033 10.6807 7.57033 11.0043V15.3012ZM11.086 15.3012C11.086 15.6248 10.8236 15.8871 10.5 15.8871C10.1764 15.8871 9.91408 15.6248 9.91408 15.3012V11.0043C9.91408 10.6807 10.1764 10.4184 10.5 10.4184C10.8236 10.4184 11.086 10.6807 11.086 11.0043V15.3012ZM14.6016 15.3012C14.6016 15.6248 14.3392 15.8871 14.0156 15.8871C13.6921 15.8871 13.4297 15.6248 13.4297 15.3012V11.0043C13.4297 10.6807 13.6921 10.4184 14.0156 10.4184C14.3392 10.4184 14.6016 10.6807 14.6016 11.0043V15.3012ZM15.6271 9.0022C15.5508 9.03556 15.4712 9.05134 15.3929 9.05134C15.1671 9.05134 14.9518 8.92001 14.8556 8.69974L14.2106 7.22286H15.4894L15.9296 8.23075C16.0591 8.52732 15.9237 8.87271 15.6271 9.0022Z" fill="#65C855"/>
</g>
<defs>
<clipPath id="clip0_7_1611">
<rect width="20" height="20" fill="white" transform="translate(0.5)"/>
</clipPath>
</defs>
</svg>
