<svg width="20" height="20" viewBox="0 0 20 20" fill="none" xmlns="http://www.w3.org/2000/svg">
<g id="shopping-cart-2 1" clip-path="url(#clip0_2_847)">
<g id="Vector">
<path d="M19.703 7.22904C19.4389 6.89772 19.0427 6.70764 18.6159 6.70764H14.7642L12.6756 1.9251C12.5461 1.62858 12.2007 1.49307 11.9041 1.62264C11.6076 1.75213 11.4721 2.09756 11.6017 2.39412L13.4854 6.70768H6.51443L8.39822 2.39412C8.52771 2.09756 8.39232 1.75217 8.09576 1.62264C7.79924 1.49307 7.45381 1.6285 7.32432 1.9251L5.23568 6.70768H1.38396C0.957168 6.70768 0.560957 6.89772 0.296855 7.22908C0.0375977 7.5544 -0.0580664 7.9726 0.0343946 8.37658L2.09131 17.361C2.23494 17.9883 2.7899 18.4264 3.44088 18.4264H16.559C17.21 18.4264 17.7649 17.9883 17.9086 17.361L19.9655 8.37654C20.0579 7.97256 19.9623 7.55436 19.703 7.22904ZM16.559 17.2545H3.44088C3.34139 17.2545 3.25424 17.1893 3.23365 17.0994L1.17674 8.11506C1.16061 8.04455 1.18768 7.99151 1.2133 7.95944C1.23705 7.92959 1.29084 7.87955 1.38396 7.87955H4.72393L4.57045 8.231C4.44096 8.52756 4.57635 8.87295 4.87291 9.00248C4.94924 9.03584 5.02877 9.05162 5.10709 9.05162C5.33295 9.05162 5.54818 8.92026 5.64435 8.70006L6.00267 7.87963H13.9973L14.3556 8.70006C14.4518 8.9203 14.667 9.05162 14.8929 9.05162C14.9712 9.05162 15.0507 9.03584 15.127 9.00248C15.4236 8.87299 15.559 8.52756 15.4295 8.231L15.276 7.87955H18.616C18.7091 7.87955 18.7629 7.92959 18.7867 7.95944C18.8122 7.99154 18.8394 8.04459 18.8232 8.11502L16.7663 17.0994C16.7457 17.1893 16.6585 17.2545 16.559 17.2545Z" fill="#2B8E00"/>
<path d="M19.703 7.22904C19.4389 6.89772 19.0427 6.70764 18.6159 6.70764H14.7642L12.6756 1.9251C12.5461 1.62858 12.2007 1.49307 11.9041 1.62264C11.6076 1.75213 11.4721 2.09756 11.6017 2.39412L13.4854 6.70768H6.51443L8.39822 2.39412C8.52771 2.09756 8.39232 1.75217 8.09576 1.62264C7.79924 1.49307 7.45381 1.6285 7.32432 1.9251L5.23568 6.70768H1.38396C0.957168 6.70768 0.560957 6.89772 0.296855 7.22908C0.0375977 7.5544 -0.0580664 7.9726 0.0343946 8.37658L2.09131 17.361C2.23494 17.9883 2.7899 18.4264 3.44088 18.4264H16.559C17.21 18.4264 17.7649 17.9883 17.9086 17.361L19.9655 8.37654C20.0579 7.97256 19.9623 7.55436 19.703 7.22904ZM16.559 17.2545H3.44088C3.34139 17.2545 3.25424 17.1893 3.23365 17.0994L1.17674 8.11506C1.16061 8.04455 1.18768 7.99151 1.2133 7.95944C1.23705 7.92959 1.29084 7.87955 1.38396 7.87955H4.72393L4.57045 8.231C4.44096 8.52756 4.57635 8.87295 4.87291 9.00248C4.94924 9.03584 5.02877 9.05162 5.10709 9.05162C5.33295 9.05162 5.54818 8.92026 5.64435 8.70006L6.00267 7.87963H13.9973L14.3556 8.70006C14.4518 8.9203 14.667 9.05162 14.8929 9.05162C14.9712 9.05162 15.0507 9.03584 15.127 9.00248C15.4236 8.87299 15.559 8.52756 15.4295 8.231L15.276 7.87955H18.616C18.7091 7.87955 18.7629 7.92959 18.7867 7.95944C18.8122 7.99154 18.8394 8.04459 18.8232 8.11502L16.7663 17.0994C16.7457 17.1893 16.6585 17.2545 16.559 17.2545Z"/>
</g>
<g id="Vector_2">
<path d="M6.48438 10.4188C6.16078 10.4188 5.89844 10.6812 5.89844 11.0048V15.3016C5.89844 15.6252 6.16078 15.8876 6.48438 15.8876C6.80797 15.8876 7.07031 15.6252 7.07031 15.3016V11.0048C7.07031 10.6812 6.80801 10.4188 6.48438 10.4188Z" fill="#2B8E00"/>
<path d="M6.48438 10.4188C6.16078 10.4188 5.89844 10.6812 5.89844 11.0048V15.3016C5.89844 15.6252 6.16078 15.8876 6.48438 15.8876C6.80797 15.8876 7.07031 15.6252 7.07031 15.3016V11.0048C7.07031 10.6812 6.80801 10.4188 6.48438 10.4188Z"/>
</g>
<g id="Vector_3">
<path d="M10 10.4188C9.67641 10.4188 9.41406 10.6812 9.41406 11.0048V15.3016C9.41406 15.6252 9.67641 15.8876 10 15.8876C10.3236 15.8876 10.5859 15.6252 10.5859 15.3016V11.0048C10.5859 10.6812 10.3236 10.4188 10 10.4188Z" fill="#2B8E00"/>
<path d="M10 10.4188C9.67641 10.4188 9.41406 10.6812 9.41406 11.0048V15.3016C9.41406 15.6252 9.67641 15.8876 10 15.8876C10.3236 15.8876 10.5859 15.6252 10.5859 15.3016V11.0048C10.5859 10.6812 10.3236 10.4188 10 10.4188Z"/>
</g>
<g id="Vector_4">
<path d="M13.5156 10.4188C13.192 10.4188 12.9297 10.6812 12.9297 11.0048V15.3016C12.9297 15.6252 13.192 15.8876 13.5156 15.8876C13.8392 15.8876 14.1016 15.6252 14.1016 15.3016V11.0048C14.1015 10.6812 13.8392 10.4188 13.5156 10.4188Z" fill="#2B8E00"/>
<path d="M13.5156 10.4188C13.192 10.4188 12.9297 10.6812 12.9297 11.0048V15.3016C12.9297 15.6252 13.192 15.8876 13.5156 15.8876C13.8392 15.8876 14.1016 15.6252 14.1016 15.3016V11.0048C14.1015 10.6812 13.8392 10.4188 13.5156 10.4188Z"/>
</g>
</g>
<defs>
<clipPath id="clip0_2_847">
<rect width="20" height="20" fill="white"/>
</clipPath>
</defs>
</svg>
