<svg width="16" height="16" viewBox="0 0 16 16" fill="none" xmlns="http://www.w3.org/2000/svg">
<g id="icon / system">
<path id="&#208;&#159;&#209;&#128;&#209;&#143;&#208;&#188;&#208;&#190;&#209;&#131;&#208;&#179;&#208;&#190;&#208;&#187;&#209;&#140;&#208;&#189;&#208;&#184;&#208;&#186; 2" d="M12.9308 3H3.06917C1.9264 3 1 3.82829 1 4.85004V13.15C1 14.1717 1.9264 15 3.06917 15H12.9308C14.0736 15 15 14.1717 15 13.15V4.85004C15 3.82829 14.0736 3 12.9308 3Z" stroke="#5D6C7B" stroke-width="2"/>
<g id="&#208;&#154;&#208;&#190;&#208;&#189;&#209;&#130;&#209;&#131;&#209;&#128; 15">
<mask id="path-2-outside-1_3_553" maskUnits="userSpaceOnUse" x="3" y="0" width="2" height="4" fill="black">
<rect fill="white" x="3" width="2" height="4"/>
<path d="M4 3V1Z"/>
</mask>
<path d="M5 3C5 3.55228 4.55228 4 4 4C3.44772 4 3 3.55228 3 3H5ZM3 1C3 0.447715 3.44772 0 4 0C4.55228 0 5 0.447715 5 1H3ZM3 3V1H5V3H3Z" fill="#5D6C7B" mask="url(#path-2-outside-1_3_553)"/>
</g>
<g id="&#208;&#154;&#208;&#190;&#208;&#189;&#209;&#130;&#209;&#131;&#209;&#128; 16">
<mask id="path-4-outside-2_3_553" maskUnits="userSpaceOnUse" x="11" y="0" width="2" height="4" fill="black">
<rect fill="white" x="11" width="2" height="4"/>
<path d="M12 3V1Z"/>
</mask>
<path d="M13 3C13 3.55228 12.5523 4 12 4C11.4477 4 11 3.55228 11 3H13ZM11 1C11 0.447715 11.4477 0 12 0C12.5523 0 13 0.447715 13 1H11ZM11 3V1H13V3H11Z" fill="#5D6C7B" mask="url(#path-4-outside-2_3_553)"/>
</g>
<g id="&#208;&#154;&#208;&#190;&#208;&#189;&#209;&#130;&#209;&#131;&#209;&#128; 17">
<mask id="path-6-outside-3_3_553" maskUnits="userSpaceOnUse" x="0" y="5" width="16" height="2" fill="black">
<rect fill="white" y="5" width="16" height="2"/>
<path d="M1 6H15Z"/>
</mask>
<path d="M1 5C0.447715 5 0 5.44772 0 6C0 6.55228 0.447715 7 1 7V5ZM15 7C15.5523 7 16 6.55228 16 6C16 5.44772 15.5523 5 15 5V7ZM1 7H15V5H1V7Z" fill="#5D6C7B" mask="url(#path-6-outside-3_3_553)"/>
</g>
<g id="&#208;&#154;&#208;&#190;&#208;&#189;&#209;&#130;&#209;&#131;&#209;&#128; 18">
<mask id="path-8-outside-4_3_553" maskUnits="userSpaceOnUse" x="3.62317" y="8.10718" width="4" height="2" fill="black">
<rect fill="white" x="3.62317" y="8.10718" width="4" height="2"/>
<path d="M4.62317 9.10718H5.97081Z"/>
</mask>
<path d="M4.62317 8.10718C4.07088 8.10718 3.62317 8.55489 3.62317 9.10718C3.62317 9.65946 4.07088 10.1072 4.62317 10.1072V8.10718ZM5.97081 10.1072C6.52309 10.1072 6.9708 9.65946 6.9708 9.10718C6.9708 8.55489 6.52309 8.10718 5.97081 8.10718V10.1072ZM4.62317 10.1072H5.97081V8.10718H4.62317V10.1072Z" fill="#5D6C7B" mask="url(#path-8-outside-4_3_553)"/>
</g>
<g id="&#208;&#154;&#208;&#190;&#208;&#189;&#209;&#130;&#209;&#131;&#209;&#128; 19">
<mask id="path-10-outside-5_3_553" maskUnits="userSpaceOnUse" x="8.83997" y="8.10718" width="4" height="2" fill="black">
<rect fill="white" x="8.83997" y="8.10718" width="4" height="2"/>
<path d="M9.83997 9.10718H11.1876Z"/>
</mask>
<path d="M9.83997 8.10718C9.28768 8.10718 8.83997 8.55489 8.83997 9.10718C8.83997 9.65946 9.28768 10.1072 9.83997 10.1072V8.10718ZM11.1876 10.1072C11.7399 10.1072 12.1876 9.65946 12.1876 9.10718C12.1876 8.55489 11.7399 8.10718 11.1876 8.10718V10.1072ZM9.83997 10.1072H11.1876V8.10718H9.83997V10.1072Z" fill="#5D6C7B" mask="url(#path-10-outside-5_3_553)"/>
</g>
<g id="&#208;&#154;&#208;&#190;&#208;&#189;&#209;&#130;&#209;&#131;&#209;&#128; 20">
<mask id="path-12-outside-6_3_553" maskUnits="userSpaceOnUse" x="3.62317" y="11.0596" width="4" height="2" fill="black">
<rect fill="white" x="3.62317" y="11.0596" width="4" height="2"/>
<path d="M4.62317 12.0596H5.97081Z"/>
</mask>
<path d="M4.62317 11.0596C4.07088 11.0596 3.62317 11.5073 3.62317 12.0596C3.62317 12.6119 4.07088 13.0596 4.62317 13.0596V11.0596ZM5.97081 13.0596C6.52309 13.0596 6.9708 12.6119 6.9708 12.0596C6.9708 11.5073 6.52309 11.0596 5.97081 11.0596V13.0596ZM4.62317 13.0596H5.97081V11.0596H4.62317V13.0596Z" fill="#5D6C7B" mask="url(#path-12-outside-6_3_553)"/>
</g>
<g id="&#208;&#154;&#208;&#190;&#208;&#189;&#209;&#130;&#209;&#131;&#209;&#128; 21">
<mask id="path-14-outside-7_3_553" maskUnits="userSpaceOnUse" x="8.83997" y="11.0596" width="4" height="2" fill="black">
<rect fill="white" x="8.83997" y="11.0596" width="4" height="2"/>
<path d="M9.83997 12.0596H11.1876Z"/>
</mask>
<path d="M9.83997 11.0596C9.28768 11.0596 8.83997 11.5073 8.83997 12.0596C8.83997 12.6119 9.28768 13.0596 9.83997 13.0596V11.0596ZM11.1876 13.0596C11.7399 13.0596 12.1876 12.6119 12.1876 12.0596C12.1876 11.5073 11.7399 11.0596 11.1876 11.0596V13.0596ZM9.83997 13.0596H11.1876V11.0596H9.83997V13.0596Z" fill="#5D6C7B" mask="url(#path-14-outside-7_3_553)"/>
</g>
</g>
</svg>
