<svg width="30" height="30" viewBox="0 0 30 30" fill="none" xmlns="http://www.w3.org/2000/svg">
<g clip-path="url(#clip0_4_16216)">
<path d="M17.4186 29.8047C17.2936 29.8251 17.1682 29.8438 17.0423 29.861C17.1682 29.8438 17.2936 29.8251 17.4186 29.8047Z" fill="#2F3035"/>
<path d="M17.7186 29.7534C17.6589 29.7644 17.5992 29.7745 17.5394 29.7848C17.5992 29.7745 17.6589 29.7644 17.7186 29.7534Z" fill="#2F3035"/>
<path d="M16.7072 29.9028C16.561 29.9193 16.4138 29.934 16.2662 29.9463C16.4138 29.934 16.561 29.9193 16.7072 29.9028Z" fill="#2F3035"/>
<path d="M16.9954 29.8677C16.9251 29.8771 16.8544 29.8858 16.7839 29.894C16.8544 29.8858 16.9251 29.8771 16.9954 29.8677Z" fill="#2F3035"/>
<path d="M18.127 29.6724C18.0743 29.6836 18.0215 29.6948 17.9686 29.7056C18.0215 29.6948 18.0743 29.6836 18.127 29.6724Z" fill="#2F3035"/>
<path d="M19.1405 29.4209C19.0979 29.433 19.0553 29.4445 19.0128 29.4564C19.0553 29.4445 19.0979 29.433 19.1405 29.4209Z" fill="#2F3035"/>
<path d="M18.834 29.5044C18.7878 29.5165 18.7413 29.5289 18.6948 29.5406C18.7413 29.5289 18.7878 29.5168 18.834 29.5044Z" fill="#2F3035"/>
<path d="M18.433 29.6045C18.384 29.6159 18.3346 29.6267 18.2852 29.6377C18.3346 29.6267 18.384 29.6159 18.433 29.6045Z" fill="#2F3035"/>
<path d="M16.2614 29.9468C16.1824 29.9534 16.1034 29.9594 16.0242 29.9646C16.1034 29.9594 16.1824 29.9534 16.2614 29.9468Z" fill="#2F3035"/>
<path d="M30 15C30 6.717 23.283 0 15 0C6.717 0 0 6.717 0 15C0 23.283 6.717 30 15 30C15.0881 30 15.1758 29.9982 15.2637 29.9966V18.3197H12.041V14.564H15.2637V11.8002C15.2637 8.59497 17.2204 6.85043 20.0796 6.85043C21.4487 6.85043 22.6257 6.95251 22.9688 6.99806V10.348H20.9972C19.4417 10.348 19.1405 11.0873 19.1405 12.1719V14.564H22.8598L22.375 18.3197H19.1405V29.4205C25.4102 27.6231 30 21.8468 30 15Z" fill="#438559"/>
<path d="M15.9911 29.9668C15.835 29.9769 15.6782 29.9849 15.5209 29.9901C15.6782 29.9849 15.835 29.9769 15.9911 29.9668Z" fill="#2F3035"/>
<path d="M15.5129 29.9902C15.4301 29.993 15.347 29.995 15.2639 29.9964C15.347 29.995 15.4301 29.993 15.5129 29.9902Z" fill="#2F3035"/>
</g>
<defs>
<clipPath id="clip0_4_16216">
<rect width="30" height="30" fill="white"/>
</clipPath>
</defs>
</svg>
