<svg width="22" height="20" viewBox="0 0 22 20" fill="none" xmlns="http://www.w3.org/2000/svg">
<path id="Vector" d="M11 7.48086C11.2145 6.46268 12.4181 1.81812 15.9335 1.81812C17.9685 1.81812 20.1667 3.22812 20.1667 6.36632C20.1667 9.91815 16.8419 14.0663 11 17.8473C5.15808 14.0663 1.83333 9.91815 1.83333 6.36632C1.83333 3.19903 4.00492 1.8163 6.02892 1.8163C9.625 1.8163 10.7452 6.47632 11 7.48086ZM0 6.36632C0 10.0645 2.805 14.9854 11 20C19.195 14.9854 22 10.0645 22 6.36632C22 -0.871891 13.156 -1.84099 11 2.96903C8.85683 -1.81462 0 -0.9128 0 6.36632Z" fill="#2F3035"/>
</svg>
