<svg width="20" height="20" viewBox="0 0 20 20" fill="none" xmlns="http://www.w3.org/2000/svg">
<path d="M17.9935 5.51496C17.7329 4.90541 17.357 4.35303 16.887 3.88876C16.4167 3.4231 15.8621 3.05305 15.2535 2.79873C14.6224 2.53397 13.9455 2.39845 13.2622 2.40004C12.3035 2.40004 11.3681 2.66518 10.5552 3.166C10.3607 3.28581 10.176 3.4174 10.001 3.56077C9.82595 3.4174 9.6412 3.28581 9.44674 3.166C8.63387 2.66518 7.69848 2.40004 6.73976 2.40004C6.0494 2.40004 5.38044 2.53359 4.74842 2.79873C4.1378 3.05405 3.58746 3.42132 3.1149 3.88876C2.64429 4.35251 2.26835 4.90501 2.00839 5.51496C1.73808 6.14934 1.60001 6.823 1.60001 7.51629C1.60001 8.17031 1.73224 8.85182 1.99477 9.54512C2.21452 10.1245 2.52956 10.7255 2.9321 11.3324C3.56995 12.2928 4.447 13.2944 5.53601 14.3098C7.34066 15.993 9.12781 17.1557 9.20365 17.2028L9.66454 17.5013C9.86873 17.6329 10.1313 17.6329 10.3355 17.5013L10.7963 17.2028C10.8722 17.1537 12.6574 15.993 14.464 14.3098C15.553 13.2944 16.43 12.2928 17.0679 11.3324C17.4704 10.7255 17.7874 10.1245 18.0052 9.54512C18.2677 8.85182 18.4 8.17031 18.4 7.51629C18.4019 6.823 18.2639 6.14934 17.9935 5.51496V5.51496ZM10.001 15.9478C10.001 15.9478 3.07795 11.4679 3.07795 7.51629C3.07795 5.51496 4.71731 3.89269 6.73976 3.89269C8.16131 3.89269 9.39423 4.69401 10.001 5.86456C10.6077 4.69401 11.8406 3.89269 13.2622 3.89269C15.2846 3.89269 16.924 5.51496 16.924 7.51629C16.924 11.4679 10.001 15.9478 10.001 15.9478Z" fill="#2B8E00"/>
</svg>
