<svg width="21" height="20" viewBox="0 0 21 20" fill="none" xmlns="http://www.w3.org/2000/svg">
<path d="M18.4935 5.51494C18.2329 4.90538 17.857 4.35301 17.387 3.88874C16.9167 3.42308 16.3621 3.05303 15.7535 2.79871C15.1224 2.53395 14.4455 2.39843 13.7621 2.40002C12.8034 2.40002 11.868 2.66516 11.0552 3.16598C10.8607 3.28579 10.676 3.41737 10.5009 3.56075C10.3259 3.41737 10.1412 3.28579 9.94671 3.16598C9.13384 2.66516 8.19845 2.40002 7.23973 2.40002C6.54937 2.40002 5.88041 2.53357 5.24839 2.79871C4.63777 3.05403 4.08743 3.4213 3.61487 3.88874C3.14426 4.35248 2.76831 4.90499 2.50836 5.51494C2.23805 6.14932 2.09998 6.82297 2.09998 7.51627C2.09998 8.17029 2.23221 8.8518 2.49474 9.54509C2.71449 10.1245 3.02953 10.7255 3.43207 11.3323C4.06992 12.2927 4.94697 13.2944 6.03598 14.3098C7.84063 15.9929 9.62778 17.1556 9.70362 17.2028L10.1645 17.5013C10.3687 17.6329 10.6312 17.6329 10.8354 17.5013L11.2963 17.2028C11.3721 17.1537 13.1574 15.9929 14.9639 14.3098C16.053 13.2944 16.93 12.2927 17.5679 11.3323C17.9704 10.7255 18.2874 10.1245 18.5052 9.54509C18.7677 8.8518 18.9 8.17029 18.9 7.51627C18.9019 6.82297 18.7638 6.14932 18.4935 5.51494V5.51494ZM10.5009 15.9478C10.5009 15.9478 3.57792 11.4679 3.57792 7.51627C3.57792 5.51494 5.21728 3.89267 7.23973 3.89267C8.66128 3.89267 9.8942 4.69398 10.5009 5.86453C11.1077 4.69398 12.3406 3.89267 13.7621 3.89267C15.7846 3.89267 17.424 5.51494 17.424 7.51627C17.424 11.4679 10.5009 15.9478 10.5009 15.9478Z" fill="#282739"/>
</svg>
