<svg width="15" height="15" viewBox="0 0 15 15" fill="none" xmlns="http://www.w3.org/2000/svg">
<g id="Icon / Outlined / Home">
<path id="Vector" d="M13.8652 7.39824L8.20502 1.74102L7.82562 1.36162C7.73918 1.27575 7.62228 1.22755 7.50043 1.22755C7.37858 1.22755 7.26168 1.27575 7.17523 1.36162L1.13568 7.39824C1.0471 7.48648 0.977099 7.59156 0.9298 7.70729C0.882501 7.82302 0.858866 7.94706 0.86029 8.07207C0.86615 8.5877 1.29535 8.99932 1.81097 8.99932H2.43353V13.7703H12.5673V8.99932H13.2031C13.4536 8.99932 13.6894 8.90117 13.8666 8.72393C13.9539 8.63693 14.0231 8.53349 14.0701 8.41959C14.1171 8.30568 14.1411 8.18358 14.1406 8.06035C14.1406 7.81133 14.0424 7.57549 13.8652 7.39824V7.39824ZM8.32074 12.7156H6.68011V9.72735H8.32074V12.7156ZM11.5126 7.94463V12.7156H9.25824V9.37578C9.25824 9.05205 8.99603 8.78985 8.6723 8.78985H6.32855C6.00482 8.78985 5.74261 9.05205 5.74261 9.37578V12.7156H3.48822V7.94463H2.08197L7.50189 2.5291L7.84027 2.86748L12.9203 7.94463H11.5126Z" fill="#5D6C7B"/>
</g>
</svg>
