<svg width="30" height="30" viewBox="0 0 30 30" fill="none" xmlns="http://www.w3.org/2000/svg">
<g clip-path="url(#clip0_4_16232)">
<path d="M15.0048 7.29736C10.751 7.29736 7.30728 10.7449 7.30728 14.9949C7.30728 19.2486 10.7548 22.6924 15.0048 22.6924C19.2585 22.6924 22.7023 19.2449 22.7023 14.9949C22.7023 10.7411 19.2548 7.29736 15.0048 7.29736V7.29736ZM15.0048 19.9911C12.2435 19.9911 10.0085 17.7549 10.0085 14.9949C10.0085 12.2349 12.2448 9.99861 15.0048 9.99861C17.7648 9.99861 20.001 12.2349 20.001 14.9949C20.0023 17.7549 17.766 19.9911 15.0048 19.9911V19.9911Z" fill="#438559"/>
<path d="M21.1849 0.0956982C18.4249 -0.0330518 11.5886 -0.0268018 8.82612 0.0956982C6.39862 0.209448 4.25737 0.795698 2.53112 2.52195C-0.353878 5.40695 0.0148721 9.29445 0.0148721 14.9957C0.0148721 20.8307 -0.310128 24.6282 2.53112 27.4694C5.42737 30.3645 9.37112 29.9857 15.0049 29.9857C20.7849 29.9857 22.7799 29.9895 24.8236 29.1982C27.6024 28.1195 29.6999 25.6357 29.9049 21.1744C30.0349 18.4132 30.0274 11.5782 29.9049 8.8157C29.6574 3.54945 26.8311 0.355698 21.1849 0.0956982ZM25.5536 25.5607C23.6624 27.4519 21.0386 27.2832 14.9686 27.2832C8.71862 27.2832 6.21237 27.3757 4.38362 25.542C2.27737 23.4457 2.65862 20.0795 2.65862 14.9757C2.65862 8.06945 1.94987 3.0957 8.88112 2.7407C10.4736 2.68445 10.9424 2.6657 14.9511 2.6657L15.0074 2.7032C21.6686 2.7032 26.8949 2.0057 27.2086 8.9357C27.2799 10.5169 27.2961 10.9919 27.2961 14.9944C27.2949 21.1719 27.4124 23.6932 25.5536 25.5607Z" fill="#438559"/>
<path d="M23.0075 8.79232C24.0009 8.79232 24.8062 7.987 24.8062 6.99357C24.8062 6.00015 24.0009 5.19482 23.0075 5.19482C22.0141 5.19482 21.2087 6.00015 21.2087 6.99357C21.2087 7.987 22.0141 8.79232 23.0075 8.79232Z" fill="#438559"/>
</g>
<defs>
<clipPath id="clip0_4_16232">
<rect width="30" height="30" fill="white"/>
</clipPath>
</defs>
</svg>
