<svg width="86" height="23" viewBox="0 0 86 23" fill="none" xmlns="http://www.w3.org/2000/svg">
<path d="M0.22 0.999999H5.29V17.65H13.72V22H0.22V0.999999ZM19.3314 11.5C19.3314 12.74 19.5714 13.84 20.0514 14.8C20.5514 15.74 21.2414 16.48 22.1214 17.02C23.0214 17.56 24.0714 17.83 25.2714 17.83C26.4514 17.83 27.4814 17.56 28.3614 17.02C29.2614 16.48 29.9514 15.74 30.4314 14.8C30.9314 13.84 31.1814 12.74 31.1814 11.5C31.1814 10.26 30.9414 9.17 30.4614 8.23C29.9814 7.27 29.3014 6.52 28.4214 5.98C27.5414 5.44 26.4914 5.17 25.2714 5.17C24.0714 5.17 23.0214 5.44 22.1214 5.98C21.2414 6.52 20.5514 7.27 20.0514 8.23C19.5714 9.17 19.3314 10.26 19.3314 11.5ZM13.9614 11.5C13.9614 9.88 14.2414 8.4 14.8014 7.06C15.3814 5.72 16.1814 4.56 17.2014 3.58C18.2214 2.6 19.4214 1.85 20.8014 1.33C22.1814 0.789999 23.6714 0.519999 25.2714 0.519999C26.8914 0.519999 28.3814 0.789999 29.7414 1.33C31.1214 1.85 32.3214 2.6 33.3414 3.58C34.3614 4.56 35.1514 5.72 35.7114 7.06C36.2714 8.4 36.5514 9.88 36.5514 11.5C36.5514 13.12 36.2714 14.61 35.7114 15.97C35.1714 17.33 34.3914 18.51 33.3714 19.51C32.3714 20.51 31.1814 21.29 29.8014 21.85C28.4214 22.39 26.9114 22.66 25.2714 22.66C23.6114 22.66 22.0914 22.39 20.7114 21.85C19.3314 21.29 18.1314 20.51 17.1114 19.51C16.1114 18.51 15.3314 17.33 14.7714 15.97C14.2314 14.61 13.9614 13.12 13.9614 11.5ZM50.2101 14.41V10.51H60.8301C60.9301 12.19 60.7601 13.76 60.3201 15.22C59.8801 16.68 59.2001 17.97 58.2801 19.09C57.3601 20.21 56.2101 21.09 54.8301 21.73C53.4501 22.35 51.8701 22.66 50.0901 22.66C48.4101 22.66 46.8701 22.4 45.4701 21.88C44.0701 21.34 42.8601 20.58 41.8401 19.6C40.8201 18.6 40.0201 17.42 39.4401 16.06C38.8801 14.68 38.6001 13.16 38.6001 11.5C38.6001 9.84 38.8901 8.34 39.4701 7C40.0501 5.64 40.8701 4.48 41.9301 3.52C42.9901 2.56 44.2301 1.82 45.6501 1.3C47.0701 0.779999 48.6101 0.519999 50.2701 0.519999C51.7501 0.519999 53.0801 0.729999 54.2601 1.15C55.4401 1.57 56.4801 2.16 57.3801 2.92C58.3001 3.66 59.0901 4.52 59.7501 5.5L55.2501 7.84C54.7701 7 54.1201 6.31 53.3001 5.77C52.5001 5.21 51.4901 4.93 50.2701 4.93C49.1101 4.93 48.0401 5.19 47.0601 5.71C46.1001 6.23 45.3301 6.98 44.7501 7.96C44.1901 8.92 43.9101 10.1 43.9101 11.5C43.9101 12.88 44.1801 14.08 44.7201 15.1C45.2801 16.1 46.0301 16.88 46.9701 17.44C47.9301 17.98 49.0301 18.25 50.2701 18.25C51.0301 18.25 51.7201 18.16 52.3401 17.98C52.9601 17.78 53.4901 17.51 53.9301 17.17C54.3701 16.81 54.7401 16.4 55.0401 15.94C55.3601 15.46 55.6101 14.95 55.7901 14.41H50.2101ZM68.4037 11.5C68.4037 12.74 68.6437 13.84 69.1237 14.8C69.6237 15.74 70.3137 16.48 71.1937 17.02C72.0937 17.56 73.1437 17.83 74.3437 17.83C75.5237 17.83 76.5537 17.56 77.4337 17.02C78.3337 16.48 79.0237 15.74 79.5037 14.8C80.0037 13.84 80.2537 12.74 80.2537 11.5C80.2537 10.26 80.0137 9.17 79.5337 8.23C79.0537 7.27 78.3737 6.52 77.4937 5.98C76.6137 5.44 75.5637 5.17 74.3437 5.17C73.1437 5.17 72.0937 5.44 71.1937 5.98C70.3137 6.52 69.6237 7.27 69.1237 8.23C68.6437 9.17 68.4037 10.26 68.4037 11.5ZM63.0337 11.5C63.0337 9.88 63.3137 8.4 63.8737 7.06C64.4537 5.72 65.2537 4.56 66.2737 3.58C67.2937 2.6 68.4937 1.85 69.8737 1.33C71.2537 0.789999 72.7437 0.519999 74.3437 0.519999C75.9637 0.519999 77.4537 0.789999 78.8137 1.33C80.1937 1.85 81.3937 2.6 82.4137 3.58C83.4337 4.56 84.2237 5.72 84.7837 7.06C85.3437 8.4 85.6237 9.88 85.6237 11.5C85.6237 13.12 85.3437 14.61 84.7837 15.97C84.2437 17.33 83.4637 18.51 82.4437 19.51C81.4437 20.51 80.2537 21.29 78.8737 21.85C77.4937 22.39 75.9837 22.66 74.3437 22.66C72.6837 22.66 71.1637 22.39 69.7837 21.85C68.4037 21.29 67.2037 20.51 66.1837 19.51C65.1837 18.51 64.4037 17.33 63.8437 15.97C63.3037 14.61 63.0337 13.12 63.0337 11.5Z" fill="#282739"/>
</svg>
