<svg width="30" height="30" viewBox="0 0 30 30" fill="none" xmlns="http://www.w3.org/2000/svg">
<g clip-path="url(#clip0_1_267)">
<path d="M18.0252 0C11.3962 0 6 5.39623 6 12.0252C6 12.7799 6.06918 13.5409 6.21384 14.283C6.22013 14.327 6.24528 14.4591 6.2956 14.6855C6.47799 15.4969 6.74843 16.2956 7.10063 17.0566C8.39623 20.1069 11.2453 24.7925 17.4969 29.8113C17.6541 29.9371 17.8428 30 18.0314 30C18.2201 30 18.4088 29.9371 18.566 29.8113C24.8113 24.7925 27.6667 20.1069 28.9623 17.0566C29.3145 16.2956 29.5849 15.5031 29.7673 14.6855C29.8176 14.4591 29.8428 14.327 29.8491 14.283C29.9874 13.5409 30.0629 12.7799 30.0629 12.0252C30.0503 5.39623 24.6541 0 18.0252 0ZM28.1635 13.9874C28.1635 14 28.1572 14.0126 28.1572 14.0252C28.1509 14.0566 28.1321 14.1509 28.1006 14.2956C28.1006 14.3019 28.1006 14.3019 28.1006 14.3082C27.9434 15.0126 27.7107 15.6981 27.4025 16.3585C27.3962 16.3648 27.3962 16.3774 27.3899 16.3836C26.2138 19.1698 23.6352 23.4214 18.0252 28.0566C12.4151 23.4214 9.83648 19.1698 8.66038 16.3836C8.65409 16.3774 8.65409 16.3648 8.6478 16.3585C8.34591 15.7044 8.11321 15.0126 7.94968 14.3082C7.94968 14.3019 7.94968 14.3019 7.94968 14.2956C7.91195 14.1509 7.89937 14.0566 7.89308 14.0252C7.89308 14.0126 7.88679 14 7.88679 13.9811C7.76101 13.3333 7.69811 12.6792 7.69811 12.0189C7.69811 6.32704 12.3333 1.69182 18.0252 1.69182C23.717 1.69182 28.3522 6.32704 28.3522 12.0189C28.3522 12.6855 28.2893 13.3459 28.1635 13.9874Z" fill="#438559"/>
<path d="M18.0251 4.52201C13.8176 4.52201 10.3899 7.94968 10.3899 12.1572C10.3899 16.3648 13.8176 19.7925 18.0251 19.7925C22.2327 19.7925 25.6604 16.3648 25.6604 12.1572C25.6604 7.94968 22.2327 4.52201 18.0251 4.52201ZM18.0251 18.0943C14.7484 18.0943 12.088 15.4277 12.088 12.1572C12.088 8.88679 14.7547 6.22012 18.0251 6.22012C21.2956 6.22012 23.9622 8.88679 23.9622 12.1572C23.9622 15.4277 21.3019 18.0943 18.0251 18.0943Z" fill="#438559"/>
</g>
<defs>
<clipPath id="clip0_1_267">
<rect width="30" height="30" fill="white"/>
</clipPath>
</defs>
</svg>
