<svg width="14" height="17" viewBox="0 0 14 17" fill="none" xmlns="http://www.w3.org/2000/svg">
<path id="Combined Shape" fill-rule="evenodd" clip-rule="evenodd" d="M6.75284 0C9.13985 0 11.4231 1.12705 12.5647 3.09945C13.7063 4.97788 13.81 7.23202 12.5646 9.11051V9.20442L8.10197 16.2486C7.79065 16.7183 7.27177 17 6.75284 17C6.23396 17 5.71503 16.7183 5.4037 16.2486L1.04485 9.39226C-0.823222 6.48064 0.110813 2.62981 3.22425 0.939215C4.26206 0.375664 5.50742 0 6.75284 0ZM4.15808 6.19914C4.15808 4.8842 5.29967 3.85107 6.75264 3.85107C8.20561 3.85107 9.34719 4.8842 9.34719 6.19914C9.34719 7.51407 8.20561 8.5472 6.75264 8.5472C5.29967 8.5472 4.15808 7.51407 4.15808 6.19914Z" fill="#438559"/>
</svg>
