<svg width="18" height="17" viewBox="0 0 18 17" fill="none" xmlns="http://www.w3.org/2000/svg">
<path id="Phone" d="M17.1257 13.4462L14.4248 10.8146C13.8869 10.2925 12.996 10.3084 12.4393 10.851L11.0786 12.1764C10.9926 12.1302 10.9036 12.082 10.8101 12.0308C9.95079 11.567 8.77472 10.9312 7.53716 9.72462C6.29592 8.5155 5.64275 7.36795 5.16517 6.53026C5.11478 6.44151 5.06649 6.35595 5.01881 6.27469L5.93205 5.38629L6.38103 4.94833C6.9386 4.40498 6.95397 3.53728 6.41726 3.01375L3.71638 0.381834C3.17967 -0.140957 2.28838 -0.125097 1.73082 0.418253L0.969622 1.16411L0.990423 1.18423C0.735182 1.50153 0.521895 1.86748 0.363173 2.26212C0.216862 2.63777 0.125769 2.99623 0.0841164 3.35543C-0.272518 6.23587 1.07855 8.86838 4.74518 12.4406C9.81358 17.3782 13.898 17.0052 14.0742 16.987C14.458 16.9423 14.8258 16.8529 15.1996 16.7115C15.6011 16.5587 15.9765 16.3512 16.302 16.1031L16.3186 16.1175L17.0898 15.3818C17.6462 14.8385 17.6622 13.9705 17.1257 13.4462Z" fill="#438559"/>
</svg>
