<svg width="24" height="24" viewBox="0 0 24 24" fill="none" xmlns="http://www.w3.org/2000/svg">
<g clip-path="url(#clip0_5_3827)">
<mask id="mask0_5_3827" style="mask-type:luminance" maskUnits="userSpaceOnUse" x="0" y="0" width="24" height="24">
<path d="M24 0H0V24H24V0Z" fill="white"/>
</mask>
<g mask="url(#mask0_5_3827)">
<path fill-rule="evenodd" clip-rule="evenodd" d="M0 6C0 4.34315 1.34315 3 3 3H14C15.6569 3 17 4.34315 17 6V6.91767C17.375 6.74914 17.7908 6.65538 18.2286 6.65538H19.1557C19.9513 6.65538 20.7144 6.97145 21.277 7.53406L23.0945 9.35158C23.6571 9.91419 23.9732 10.6772 23.9732 11.4729V15.3124C23.9732 16.9693 22.63 18.3124 20.9732 18.3124C20.9782 18.248 20.9806 18.1829 20.9806 18.1172C20.9806 17.407 20.6833 16.7662 20.2065 16.3124H20.9732C21.5255 16.3124 21.9732 15.8647 21.9732 15.3124V11.4729C21.9732 11.2077 21.8678 10.9533 21.6803 10.7658L19.8628 8.94828C19.6752 8.76074 19.4209 8.65538 19.1557 8.65538H18.2286C17.6763 8.65538 17.2286 9.1031 17.2286 9.65538V15.3124C17.2286 15.5213 17.2926 15.7152 17.4021 15.8756C16.5714 16.2794 15.9987 17.1314 15.9987 18.1172C15.9987 18.1566 15.9997 18.1958 16.0015 18.2348C15.4705 18.7106 14.7691 19 14 19H7.86685C7.97087 18.7256 8.02781 18.428 8.02781 18.1172C8.02781 17.7155 7.93273 17.336 7.76383 17H14C14.5523 17 15 16.5523 15 16V6C15 5.44772 14.5523 5 14 5H3C2.44772 5 2 5.44772 2 6V8.00001H0V6ZM0 12V16C0 17.6569 1.34315 19 3 19H3.20697C3.10294 18.7256 3.046 18.428 3.046 18.1172C3.046 17.7155 3.14109 17.336 3.30998 17H3C2.44772 17 2 16.5523 2 16V12H0Z" fill="#5ABD32"/>
<path d="M5.5368 20.608C6.91249 20.608 8.02771 19.4928 8.02771 18.1171C8.02771 16.7414 6.91249 15.6262 5.5368 15.6262C4.16111 15.6262 3.0459 16.7414 3.0459 18.1171C3.0459 19.4928 4.16111 20.608 5.5368 20.608Z" stroke="#5ABD32" stroke-width="2" stroke-linecap="round" stroke-linejoin="round"/>
<path d="M18.4894 20.608C19.8651 20.608 20.9803 19.4928 20.9803 18.1171C20.9803 16.7414 19.8651 15.6262 18.4894 15.6262C17.1138 15.6262 15.9985 16.7414 15.9985 18.1171C15.9985 19.4928 17.1138 20.608 18.4894 20.608Z" stroke="#5ABD32" stroke-width="2" stroke-linecap="round" stroke-linejoin="round"/>
<path d="M10 8H1" stroke="#5ABD32" stroke-width="2" stroke-linecap="round" stroke-linejoin="round"/>
<path d="M6 12H1" stroke="#5ABD32" stroke-width="2" stroke-linecap="round" stroke-linejoin="round"/>
</g>
</g>
<defs>
<clipPath id="clip0_5_3827">
<rect width="24" height="24" fill="white"/>
</clipPath>
</defs>
</svg>
